{
	"images":[{
		"uri":"data:image/jpeg;base64,"
	},
	{
		"uri":"data:image/jpeg;base64,"
	}],
	"asset":{
		"version":"2.0",
		"generator":"Created using the official Cinema 4D glTF Exporter 1.000x284978"
	},
	"scenes":[{
		"nodes":[0]
	}],
	"nodes":[{
		"name":"Group23873_0",
		"translation":[0.0,
		0.0,
		0.0],
		"rotation":[-2.1855695919725805e-8,
		0.0,
		0.0,
		-1.0],
		"scale":[10.0,
		10.0,
		10.0],
		"mesh":0
	}],
	"meshes":[{
		"name":"Group23873_0",
		"primitives":[{
			"attributes":{
				"POSITION":1,
				"NORMAL":2,
				"TEXCOORD_0":3
			},
			"indices":0,
			"material":0
		}]
	}],
	"accessors":[{
		"bufferView":0,
		"type":"SCALAR",
		"componentType":5123,
		"count":299982,
		"byteOffset":0,
		"min":[0],
		"max":[51819]
	},
	{
		"bufferView":1,
		"type":"VEC3",
		"componentType":5126,
		"count":51820,
		"byteOffset":0,
		"min":[-2.637456178665161,
		0.6214325428009033,
		-1.5850024223327637],
		"max":[2.271775722503662,
		15.340014457702637,
		1.6463221311569214]
	},
	{
		"bufferView":1,
		"type":"VEC3",
		"componentType":5126,
		"count":51820,
		"byteOffset":12,
		"min":[-0.9999873042106628,
		-0.999984085559845,
		-0.9999781250953674],
		"max":[0.9999769926071167,
		0.9999971389770508,
		0.9999834895133972]
	},
	{
		"bufferView":1,
		"type":"VEC2",
		"componentType":5126,
		"count":51820,
		"byteOffset":24,
		"min":[0.0019000000320374966,
		0.001999974250793457],
		"max":[0.9696999788284302,
		0.9980999231338501]
	}],
	"bufferViews":[{
		"buffer":0,
		"byteOffset":0,
		"byteLength":599964,
		"target":34963
	},
	{
		"buffer":0,
		"byteOffset":599964,
		"byteLength":1658240,
		"target":34962,
		"byteStride":32
	}],
	"buffers":[{
		"uri":"data:application/octet-stream;base64,",
		"byteLength":2258204
	}],
	"samplers":[{
		"magFilter":9729,
		"minFilter":9729,
		"wrapS":10497,
		"wrapT":10497
	},
	{
		"magFilter":9729,
		"minFilter":9729,
		"wrapS":10497,
		"wrapT":10497
	}],
	"textures":[{
		"sampler":0,
		"source":0
	},
	{
		"sampler":1,
		"source":1
	}],
	"materials":[{
		"pbrMetallicRoughness":{
			"baseColorTexture":{
				"index":0
			},
			"baseColorFactor":[0.8,
			0.8,
			0.8,
			1.0],
			"metallicFactor":1.0,
			"roughnessFactor":1.0
		},
		"normalTexture":{
			"index":1,
			"scale":1.0
		},
		"emissiveFactor":[0.0,
		0.0,
		0.0],
		"alphaMode":"OPAQUE",
		"doubleSided":false,
		"name":"Default"
	}]
}