{
	"asset":{
		"version":"2.0",
		"generator":"Created using the official Cinema 4D glTF Exporter 1.000x284978"
	},
	"scenes":[{
		"nodes":[0,
		1]
	}],
	"nodes":[{
		"name":"摄像机.1",
		"translation":[570.7027587890625,
		115.0179214477539,
		-498.333740234375],
		"rotation":[0.0005198497674427927,
		-0.9272094368934631,
		-0.0012869355268776417,
		-0.37454062700271609],
		"scale":[1.0,
		1.0,
		1.0],
		"camera":0
	},
	{
		"name":"说话女生",
		"translation":[43.6390266418457,
		18.283653259277345,
		30.784862518310548],
		"rotation":[5.9193867585349839e-9,
		-0.7944866418838501,
		-4.524600694111314e-9,
		0.6072816252708435],
		"scale":[0.3937009871006012,
		0.3937009871006012,
		0.3937009871006012],
		"mesh":0
	}],
	"meshes":[{
		"name":"说话女生",
		"primitives":[{
			"attributes":{
				"POSITION":1,
				"NORMAL":2,
				"TEXCOORD_0":3
			},
			"indices":0,
			"material":0
		}]
	}],
	"cameras":[{
		"type":"perspective",
		"perspective":{
			"znear":0.009999999776482582,
			"zfar":10000000000.0,
			"aspectRatio":1.7777777910232545,
			"yfov":0.5483348965644836
		}
	}],
	"accessors":[{
		"bufferView":0,
		"type":"SCALAR",
		"componentType":5123,
		"count":299784,
		"byteOffset":0,
		"min":[0],
		"max":[53983]
	},
	{
		"bufferView":1,
		"type":"VEC3",
		"componentType":5126,
		"count":53984,
		"byteOffset":0,
		"min":[-72.0113296508789,
		-0.2294517308473587,
		-50.144744873046878],
		"max":[48.875892639160159,
		357.9450988769531,
		73.537353515625]
	},
	{
		"bufferView":1,
		"type":"VEC3",
		"componentType":5126,
		"count":53984,
		"byteOffset":12,
		"min":[-0.9999794363975525,
		-0.9999843239784241,
		-0.9999580383300781],
		"max":[0.9999923706054688,
		0.9998803734779358,
		0.999998927116394]
	},
	{
		"bufferView":1,
		"type":"VEC2",
		"componentType":5126,
		"count":53984,
		"byteOffset":24,
		"min":[0.0019499999471008778,
		0.015839993953704835],
		"max":[0.9980400204658508,
		0.9980499744415283]
	}],
	"bufferViews":[{
		"buffer":0,
		"byteOffset":0,
		"byteLength":599568,
		"target":34963
	},
	{
		"buffer":0,
		"byteOffset":599568,
		"byteLength":1727488,
		"target":34962,
		"byteStride":32
	}],
	"buffers":[{
		"uri":"data:application/octet-stream;base64,",
		"byteLength":2327056
	}],
	"materials":[{
		"pbrMetallicRoughness":{
			"baseColorFactor":[0.8,
			0.8,
			0.8,
			1.0],
			"metallicFactor":1.0,
			"roughnessFactor":1.0
		},
		"emissiveFactor":[0.0,
		0.0,
		0.0],
		"alphaMode":"OPAQUE",
		"doubleSided":false,
		"name":"Material #0"
	}]
}