{
	"asset":{
		"version":"2.0",
		"generator":"Created using the official Cinema 4D glTF Exporter 1.000x284978"
	},
	"scenes":[{
		"nodes":[0,
		1]
	}],
	"nodes":[{
		"name":"10026_w_Myriam_100k_0",
		"translation":[22.229320526123048,
		19.733896255493165,
		10.43354320526123],
		"rotation":[2.0326076821675089e-8,
		-0.9961232542991638,
		6.0805134260988329e-9,
		0.08796852082014084],
		"scale":[1.0,
		1.0,
		1.0],
		"mesh":0
	},
	{
		"name":"摄像机.1",
		"translation":[570.7027587890625,
		115.0179214477539,
		-498.333740234375],
		"rotation":[0.0005198497674427927,
		-0.9272094368934631,
		-0.0012869355268776417,
		-0.37454062700271609],
		"scale":[1.0,
		1.0,
		1.0],
		"camera":0
	}],
	"meshes":[{
		"name":"10026_w_Myriam_100k_0",
		"primitives":[{
			"attributes":{
				"POSITION":1,
				"NORMAL":2,
				"TEXCOORD_0":3
			},
			"indices":0,
			"material":0
		}]
	}],
	"cameras":[{
		"type":"perspective",
		"perspective":{
			"znear":0.009999999776482582,
			"zfar":10000000000.0,
			"aspectRatio":1.7777777910232545,
			"yfov":0.5483348965644836
		}
	}],
	"accessors":[{
		"bufferView":0,
		"type":"SCALAR",
		"componentType":5123,
		"count":299973,
		"byteOffset":0,
		"min":[0],
		"max":[53679]
	},
	{
		"bufferView":1,
		"type":"VEC3",
		"componentType":5126,
		"count":53680,
		"byteOffset":0,
		"min":[-24.04477310180664,
		-0.07157471030950546,
		-33.06829833984375],
		"max":[17.88788414001465,
		156.40255737304688,
		20.034446716308595]
	},
	{
		"bufferView":1,
		"type":"VEC3",
		"componentType":5126,
		"count":53680,
		"byteOffset":12,
		"min":[-0.9999822378158569,
		-0.999981701374054,
		-0.9999639391899109],
		"max":[0.9999614953994751,
		0.9999467730522156,
		0.9999781250953674]
	},
	{
		"bufferView":1,
		"type":"VEC2",
		"componentType":5126,
		"count":53680,
		"byteOffset":24,
		"min":[0.0019499999471008778,
		0.01512002944946289],
		"max":[0.9980400204658508,
		0.9980499744415283]
	}],
	"bufferViews":[{
		"buffer":0,
		"byteOffset":0,
		"byteLength":599946,
		"target":34963
	},
	{
		"buffer":0,
		"byteOffset":599948,
		"byteLength":1717760,
		"target":34962,
		"byteStride":32
	}],
	"buffers":[{
		"uri":"data:application/octet-stream;base64,",
		"byteLength":2317708
	}],
	"materials":[{
		"pbrMetallicRoughness":{
			"baseColorFactor":[0.8,
			0.8,
			0.8,
			1.0],
			"metallicFactor":1.0,
			"roughnessFactor":1.0
		},
		"emissiveFactor":[0.0,
		0.0,
		0.0],
		"alphaMode":"OPAQUE",
		"doubleSided":false,
		"name":"Default"
	}]
}